<svg xmlns="http://www.w3.org/2000/svg" xmlns:xlink="http://www.w3.org/1999/xlink" width="576.966" height="284.944" viewBox="0 0 152.656 75.391"><defs><linearGradient id="b"><stop style="stop-color:#fa3030;stop-opacity:1" offset="0"/><stop style="stop-color:#b6110e;stop-opacity:1" offset="1"/></linearGradient><linearGradient id="a"><stop offset="0" style="stop-color:#ffd3d3;stop-opacity:1"/><stop style="stop-color:#ff6f6f;stop-opacity:.37647059" offset=".764"/><stop offset="1" style="stop-color:#f33;stop-opacity:0"/></linearGradient><linearGradient xlink:href="#a" id="d" x1="802.938" y1="313.494" x2="744.258" y2="412.445" gradientUnits="userSpaceOnUse" gradientTransform="matrix(.13738 0 0 .13502 506.44 -75.402)"/><linearGradient xlink:href="#b" id="c" x1="335.91" y1="13.474" x2="335.91" y2="92.001" gradientUnits="userSpaceOnUse" gradientTransform="matrix(.7492 0 0 .75361 279.933 -48.424)"/></defs><g transform="translate(-468.96 38.27)"><rect style="fill:url(#c);fill-opacity:1;stroke:none;stroke-width:1.02979;stroke-linejoin:round;paint-order:stroke fill markers" width="90.02" height="59.179" x="531.595" y="-38.27" ry="12.474"/><path style="fill:url(#d);fill-opacity:1;stroke:none;stroke-width:.13619" d="M567.769 19.687a645.474 645.474 0 0 1-8.273-.188c-9.438-.331-15.918-.685-17.212-.94-1.846-.364-3.908-1.581-5.105-3.013-1.918-2.296-2.94-5.082-3.436-9.37-1.154-9.968-1.128-21.59.068-31.21.525-4.212 1.828-7.258 4.017-9.382 1.25-1.212.58 1.679 2.181 1.28 3.464-.864 32.382-4.386 48.876-4.028 9.528.206 19.235-.136 21.971.168 3.539.392 6.543 2.948 8.262 6.337 1.299 2.559 1.196 3.711 1.203 10.058.006 4.88-.143 9.044-.217 14.654-.088 6.714 1.308 11.368.654 14.689-.692 3.51-2.33 6.502-4.443 8.121-1.634 1.252-3.373 1.81-6.108 1.96-.813.045-1.842.11-2.286.143-1.58.119-10.028.453-14.662.58-6.888.188-18.937.255-25.49.141z"/><path d="M539.07-28.76v5.218l3.127.038 3.126.039.035 16.557c.02 9.107.064 16.633.101 16.73.052.134.704.165 2.85.136l2.775-.034.07-16.694.07-16.695 3.201-.039 3.2-.038-.039-2.572-.04-2.572-9.237-.039zm40.184.005V9.993h5.058V8.687c0-.865.055-1.305.158-1.305.086 0 .654.456 1.265 1.018 1.967 1.81 3.671 2.31 5.796 1.696.814-.235 1.807-1.185 2.252-2.156.855-1.863.856-1.907.856-12.375 0-8.593-.021-9.652-.241-10.58-.707-2.973-2.248-4.274-4.834-4.083-1.45.107-2.594.672-3.96 1.962-.595.56-1.128 1.022-1.186 1.022-.058 0-.106-2.844-.106-6.32v-6.321h-2.529zm27.837 9.627a7.712 7.712 0 0 0-2.437.442c-2.724.972-4.334 2.722-4.983 5.428-.23.956-.255 1.815-.255 8.823 0 8.596.032 8.946.931 10.705 1.601 3.133 5.612 4.767 9.256 3.77 2.706-.74 4.578-2.546 5.281-5.097.12-.436.254-1.67.299-2.748l.083-1.958h-5.206l-.066 1.752c-.073 1.995-.282 2.679-1.023 3.315-.79.679-2.242.726-3.187.103-1.124-.74-1.405-1.992-1.348-6.063l.04-2.885 5.39-.04 5.393-.033-.075-4.294c-.083-4.788-.185-5.515-1.01-7.214-1.223-2.519-4.142-4.065-7.082-4.006zm-48.21.403v12.44c0 13.546.015 13.838.79 15.144.848 1.427 2.838 1.874 4.932 1.108 1.01-.37 2.196-1.17 3.196-2.164.461-.458.92-.833 1.019-.833.135 0 .18.374.18 1.511v1.512h5.058v-28.718h-5.058V3.428l-1.09 1.06c-.864.84-1.227 1.094-1.76 1.237-.905.243-1.475.076-1.848-.546-.282-.469-.288-.68-.325-12.19l-.04-11.714h-2.524zm48.416 4.071c1.13 0 1.84.425 2.323 1.383.306.607.34.863.382 3.1l.044 2.439h-2.753c-2.374 0-2.768-.033-2.84-.22-.131-.331.05-4.183.223-4.744.406-1.317 1.265-1.958 2.621-1.958zm-20.25.322c.794-.028 1.478.329 1.845 1.052.255.504.273.956.303 8.64.029 7.37.01 8.167-.211 8.789-.17.477-.387.778-.72.996-.843.551-2.066.375-3.179-.455l-.492-.365v-17.523l.492-.365c.66-.493 1.345-.747 1.963-.769z" style="opacity:.753;fill:#a60707;fill-opacity:1;stroke:none;stroke-width:.138943"/><path d="M539.07-27.847v5.217l3.127.04 3.126.038.035 16.557c.02 9.106.064 16.633.101 16.729.052.135.704.166 2.85.137l2.775-.034.07-16.695.07-16.694 3.201-.039 3.2-.039-.039-2.572-.04-2.572-9.237-.038zm40.184.005v38.748h5.058V9.6c0-.865.055-1.305.158-1.305.086 0 .654.456 1.265 1.018 1.967 1.81 3.671 2.309 5.796 1.696.814-.235 1.807-1.186 2.252-2.156.855-1.863.856-1.907.856-12.375 0-8.593-.021-9.653-.241-10.58-.707-2.973-2.248-4.275-4.834-4.083-1.45.107-2.594.672-3.96 1.962-.595.56-1.128 1.022-1.186 1.022-.058 0-.106-2.844-.106-6.32v-6.321h-2.529zm27.837 9.627a7.712 7.712 0 0 0-2.437.442c-2.724.971-4.334 2.722-4.983 5.427-.23.956-.255 1.816-.255 8.824 0 8.595.032 8.946.931 10.705 1.601 3.133 5.612 4.767 9.256 3.77 2.706-.74 4.578-2.547 5.281-5.097.12-.436.254-1.671.299-2.748l.083-1.958h-5.206l-.066 1.752c-.073 1.995-.282 2.678-1.023 3.315-.79.679-2.242.725-3.187.103-1.124-.74-1.405-1.993-1.348-6.063l.04-2.886 5.39-.038 5.393-.035-.075-4.294c-.083-4.787-.185-5.514-1.01-7.213-1.223-2.519-4.142-4.065-7.082-4.006zm-48.21.403v12.44c0 13.546.015 13.838.79 15.144.848 1.427 2.838 1.874 4.932 1.108 1.01-.37 2.196-1.17 3.196-2.164.461-.458.92-.833 1.019-.833.135 0 .18.374.18 1.511v1.512h5.058v-28.718h-5.058V4.34l-1.09 1.06c-.864.841-1.227 1.094-1.76 1.237-.905.244-1.475.077-1.848-.545-.282-.469-.288-.68-.325-12.19l-.04-11.714h-2.524zm48.416 4.07c1.13 0 1.84.426 2.323 1.383.306.607.34.863.382 3.1l.044 2.44h-2.753c-2.374 0-2.768-.034-2.84-.22-.131-.332.05-4.184.223-4.744.406-1.317 1.265-1.958 2.621-1.958zm-20.25.323c.794-.028 1.478.328 1.845 1.052.255.503.273.956.303 8.64.029 7.37.01 8.167-.211 8.789-.17.477-.387.778-.72.996-.843.55-2.066.375-3.179-.455l-.492-.365v-17.524l.492-.365c.66-.492 1.345-.747 1.963-.768z" style="fill:#fff;fill-opacity:1;stroke:#fff;stroke-width:.138943;stroke-opacity:1"/></g><path d="M497.038 10.895c-2.568-.305-4.926-1.783-6.062-3.8-1.158-2.056-1.264-3.132-1.196-12.184.053-7.011.071-7.45.355-8.455.677-2.393 1.988-4.025 4.022-5.009 2.793-1.35 5.802-1.174 8.437.494 1.677 1.062 2.697 2.597 3.24 4.882.241 1.012.264 1.785.264 8.867 0 8.61-.042 9.107-.943 10.973-.868 1.797-2.83 3.38-4.877 3.937-.901.244-2.468.387-3.24.295zm2.25-5.623c.983-.734.99-.794 1.044-9.09.042-6.441.019-7.536-.181-8.415-.27-1.184-.742-1.75-1.664-1.993-1.195-.315-2.29.354-2.668 1.631-.292.984-.289 15.597.003 16.583.219.738.93 1.546 1.457 1.656.685.143 1.526-.013 2.008-.372zm14.456 5.63c-1.424-.186-2.254-.724-2.825-1.828-.715-1.387-.715-1.379-.715-15.185v-12.886h5.742l.06 11.877c.066 12.902.047 12.601.836 12.795.724.178 1.525-.202 2.525-1.198l.958-.955.036-11.26.036-11.259 2.867-.037 2.867-.038v29.497l-.389.078c-.47.095-4.817.088-5.168-.007-.214-.059-.247-.25-.247-1.405V7.754l-.814.775c-1.874 1.785-3.895 2.616-5.77 2.372zm-37.253-.483c-.12-.19-.102-11.59.021-13.204.158-2.07-.197-3.698-1.715-7.861a194.671 194.671 0 0 1-1.977-5.82c-4.292-13.36-4.064-12.575-3.654-12.578 2.827-.024 6.319-.007 6.357.03.027.026.946 3.289 2.042 7.25a2992.75 2992.75 0 0 0 2.033 7.327c.022.068.666-2.239 1.43-5.127 1.602-6.055 2.501-9.399 2.536-9.43.071-.064.868-.078 3.473-.064l2.882.016-.063.45c-.052.368-2.02 6.833-4.079 13.406-.227.724-.8 2.594-1.274 4.156a320.63 320.63 0 0 1-1.278 4.124l-.416 1.283v8.026c0 7.525-.015 8.03-.248 8.092-.516.138-5.977.07-6.07-.076z" style="fill:#fff;fill-opacity:1;stroke:none;stroke-width:.140058;stroke-miterlimit:4;stroke-dasharray:none;stroke-opacity:1" transform="translate(-468.96 38.27)"/><g aria-label="Broadcast Yourself" style="fill:#fff;font-size:17.3453px;line-height:1.6;font-family:Tahoma;-inkscape-font-specification:Tahoma;letter-spacing:-.116417px;word-spacing:-.404813px;stroke-width:.0903397"><path d="M466.69 37.903c.504.07 1.301.139 2.342.139 1.908 0 3.226-.347 4.042-1.093.59-.573.988-1.336.988-2.342 0-1.734-1.3-2.654-2.41-2.931v-.035c1.23-.45 1.977-1.44 1.977-2.567 0-.92-.365-1.613-.972-2.064-.728-.59-1.7-.85-3.209-.85-1.058 0-2.098.104-2.757.243zm1.51-10.477c.242-.052.641-.104 1.335-.104 1.527 0 2.567.538 2.567 1.908 0 1.128-.936 1.96-2.532 1.96h-1.37zm0 4.909h1.248c1.648 0 3.019.66 3.019 2.255 0 1.7-1.44 2.272-3.001 2.272-.538 0-.972-.017-1.266-.07zm7.723 5.603h1.51v-4.476c0-.26.034-.503.069-.71.208-1.146.971-1.96 2.046-1.96.209 0 .365.017.52.051v-1.44a1.651 1.651 0 0 0-.433-.051c-1.023 0-1.943.71-2.324 1.838h-.07l-.052-1.648h-1.335c.052.78.07 1.63.07 2.62zm8.938-8.586c-2.324 0-4.163 1.647-4.163 4.457 0 2.654 1.752 4.32 4.024 4.32 2.03 0 4.18-1.354 4.18-4.458 0-2.568-1.63-4.32-4.041-4.32zm-.035 1.144c1.804 0 2.515 1.804 2.515 3.227 0 1.89-1.092 3.26-2.55 3.26-1.491 0-2.55-1.387-2.55-3.226 0-1.595.781-3.26 2.585-3.26zm11.783 2.29c0-1.683-.625-3.434-3.192-3.434-1.058 0-2.064.294-2.758.745l.347 1.006c.59-.381 1.405-.624 2.186-.624 1.717 0 1.908 1.249 1.908 1.943v.173c-3.244-.017-5.048 1.093-5.048 3.122 0 1.214.868 2.411 2.567 2.411 1.197 0 2.1-.59 2.567-1.249h.052l.122 1.059h1.388c-.105-.573-.14-1.284-.14-2.013zm-1.475 2.324c0 .156-.034.33-.086.486-.243.711-.937 1.405-2.03 1.405-.78 0-1.44-.468-1.44-1.457 0-1.63 1.891-1.925 3.556-1.89zm9.546-9.488v5.013h-.035c-.382-.676-1.25-1.283-2.533-1.283-2.047 0-3.781 1.717-3.764 4.51 0 2.55 1.561 4.266 3.59 4.266 1.371 0 2.394-.71 2.863-1.647h.034l.07 1.457h1.37c-.052-.573-.07-1.423-.07-2.169V25.622Zm0 8.794c0 .243-.018.451-.07.66-.278 1.144-1.214 1.82-2.238 1.82-1.647 0-2.48-1.404-2.48-3.104 0-1.856.937-3.244 2.515-3.244 1.145 0 1.977.798 2.203 1.77.052.19.07.45.07.641zm9.666 2.064c-.434.191-1.006.417-1.874.417-1.665 0-2.914-1.197-2.914-3.14 0-1.752 1.041-3.174 2.966-3.174.833 0 1.405.19 1.77.399l.347-1.18c-.417-.208-1.215-.433-2.117-.433-2.74 0-4.51 1.873-4.51 4.458 0 2.567 1.648 4.301 4.18 4.301 1.128 0 2.013-.295 2.412-.503zm7.827-3.694c0-1.683-.624-3.434-3.191-3.434-1.058 0-2.064.294-2.758.745l.347 1.006c.59-.381 1.405-.624 2.185-.624 1.718 0 1.908 1.249 1.908 1.943v.173c-3.243-.017-5.047 1.093-5.047 3.122 0 1.214.867 2.411 2.567 2.411 1.197 0 2.099-.59 2.567-1.249h.052l.121 1.059h1.388c-.104-.573-.139-1.284-.139-2.013zM520.7 35.11c0 .156-.035.33-.087.486-.242.711-.936 1.405-2.03 1.405-.78 0-1.439-.468-1.439-1.457 0-1.63 1.89-1.925 3.556-1.89zm3.23 2.429c.59.346 1.44.59 2.36.59 1.994 0 3.139-1.059 3.139-2.533 0-1.249-.746-1.977-2.203-2.533-1.093-.416-1.596-.728-1.596-1.422 0-.624.503-1.145 1.405-1.145.78 0 1.388.278 1.717.486l.382-1.11c-.468-.278-1.214-.52-2.064-.52-1.804 0-2.897 1.11-2.897 2.463 0 1.006.711 1.838 2.22 2.376 1.128.416 1.561.815 1.561 1.544 0 .693-.52 1.249-1.63 1.249-.763 0-1.561-.313-2.012-.608zm7.69-9.54v1.543h-1.302v1.163h1.301v4.579c0 .988.156 1.734.59 2.185.364.416.937.66 1.648.66.59 0 1.058-.105 1.353-.226l-.07-1.145c-.225.07-.468.104-.884.104-.85 0-1.145-.59-1.145-1.63v-4.527h2.185v-1.163h-2.185V27.53z" style="font-style:normal;font-variant:normal;font-weight:400;font-stretch:normal;font-family:'Myriad Pro';-inkscape-font-specification:'Myriad Pro';stroke-width:.0903397" transform="matrix(1.02712 0 0 .9736 -468.96 38.27)"/><path d="M90.034 75.206v-4.847l4.026-6.535h-1.763l-1.729 3.14c-.463.862-.873 1.605-1.211 2.348h-.036a47.36 47.36 0 0 0-1.193-2.347l-1.693-3.141h-1.764l3.795 6.552v4.83zm7.523-8.36c-2.387 0-4.275 1.605-4.275 4.34 0 2.584 1.799 4.205 4.133 4.205 2.084 0 4.293-1.317 4.293-4.34 0-2.499-1.674-4.205-4.15-4.205zm-.035 1.115c1.853 0 2.583 1.756 2.583 3.141 0 1.84-1.122 3.175-2.619 3.175-1.532 0-2.619-1.351-2.619-3.141 0-1.554.802-3.175 2.655-3.175zm13.26-.929h-1.568v5.016c0 .27-.053.54-.143.76-.285.658-1.015 1.35-2.066 1.35-1.425 0-1.924-1.046-1.924-2.6v-4.526h-1.568v4.78c0 2.87 1.621 3.58 2.975 3.58 1.532 0 2.44-.862 2.85-1.52h.036l.09 1.334h1.389a27.583 27.583 0 0 1-.071-2.23zm2.481 8.174h1.55v-4.357c0-.254.036-.49.071-.693.214-1.114.998-1.908 2.103-1.908.214 0 .374.017.534.05v-1.401a1.784 1.784 0 0 0-.445-.05c-1.051 0-1.996.692-2.388 1.79h-.07l-.054-1.605h-1.372c.053.76.071 1.588.071 2.55zm5.101-.389c.605.338 1.478.574 2.423.574 2.048 0 3.224-1.03 3.224-2.465 0-1.216-.766-1.925-2.262-2.466-1.123-.405-1.64-.709-1.64-1.385 0-.607.517-1.114 1.444-1.114.801 0 1.425.27 1.763.473l.392-1.081c-.48-.27-1.247-.507-2.12-.507-1.853 0-2.975 1.081-2.975 2.398 0 .98.73 1.79 2.28 2.314 1.158.405 1.604.794 1.604 1.503 0 .675-.535 1.216-1.675 1.216-.784 0-1.603-.304-2.066-.591zm14.471-3.428c.018-.152.054-.388.054-.692 0-1.503-.749-3.85-3.564-3.85-2.512 0-4.044 1.941-4.044 4.407 0 2.465 1.586 4.137 4.24 4.137 1.372 0 2.316-.287 2.869-.523l-.268-1.064c-.587.236-1.264.422-2.387.422-1.568 0-2.922-.827-2.957-2.837zm-6.04-1.064c.125-1.03.82-2.415 2.406-2.415 1.763 0 2.191 1.47 2.173 2.415zm7.915 4.881h1.569v-11.99h-1.568zm5.796 0v-7.042h2.085v-1.132h-2.085v-.439c0-1.25.339-2.364 1.675-2.364.445 0 .766.084.997.186l.214-1.149a3.81 3.81 0 0 0-1.336-.236c-.73 0-1.514.22-2.102.76-.73.658-.998 1.705-.998 2.854v.388h-1.211v1.132h1.211v7.042z"/></g><g style="fill:#fff;font-size:5.98904px;line-height:1.6;font-family:Tahoma;-inkscape-font-specification:Tahoma;letter-spacing:-.0401968px;word-spacing:-.139775px;stroke-width:.0311927"><path d="M594.009 29.436h.527v-3.594h1.234V25.4h-2.989v.443h1.228zm5.673 0h.51l-.252-4.037h-.665l-.719 1.952c-.18.51-.323.953-.425 1.36h-.018c-.102-.42-.24-.862-.407-1.36l-.689-1.952h-.665l-.281 4.037h.497l.108-1.731a54.63 54.63 0 0 0 .078-1.785h.012c.113.48.275 1 .467 1.57l.653 1.922h.395l.713-1.959c.203-.55.37-1.06.509-1.533h.018c-.006.503.03 1.18.06 1.743z" style="font-style:normal;font-variant:normal;font-weight:400;font-stretch:normal;font-family:'Myriad Pro';-inkscape-font-specification:'Myriad Pro';stroke-width:.0311927" transform="matrix(1.03543 0 0 .96578 -468.96 38.27)" aria-label="TM"/></g></svg>