<svg xmlns="http://www.w3.org/2000/svg" xmlns:xlink="http://www.w3.org/1999/xlink" width="1104.571" height="440.299"><defs><linearGradient id="c"><stop style="stop-color:#333;stop-opacity:1" offset="0"/><stop style="stop-color:#525252;stop-opacity:1" offset="1"/></linearGradient><linearGradient id="b"><stop offset="0" style="stop-color:#fff;stop-opacity:.84"/><stop style="stop-color:#fff;stop-opacity:.13" offset=".764"/><stop offset="1" style="stop-color:#fff;stop-opacity:0"/></linearGradient><linearGradient id="a"><stop style="stop-color:#b80f0f;stop-opacity:1" offset="0"/><stop style="stop-color:#f33;stop-opacity:1" offset="1"/></linearGradient><linearGradient xlink:href="#a" id="e" x1="532.821" y1="694.122" x2="533.971" y2="480.04" gradientUnits="userSpaceOnUse"/><linearGradient xlink:href="#b" id="f" x1="802.938" y1="313.494" x2="744.258" y2="412.445" gradientUnits="userSpaceOnUse"/><linearGradient xlink:href="#c" id="d" x1="-176.218" y1="403.24" x2="-173.917" y2="341.108" gradientUnits="userSpaceOnUse"/></defs><path d="M240 300v360h580V300z" style="fill:#fff" transform="translate(244.234 -269.743)"/><path d="M-51.508 624.392c-18.133-2.202-34.79-12.871-42.814-27.425-8.182-14.837-8.928-22.608-8.447-87.934.373-50.601.504-53.773 2.51-61.02 4.78-17.272 14.037-29.053 28.408-36.154 19.723-9.745 40.98-8.473 59.59 3.566 11.847 7.664 19.047 18.746 22.889 35.232 1.701 7.302 1.864 12.886 1.864 64 0 62.136-.302 65.726-6.664 79.19C-.3 606.82-14.159 618.25-28.62 622.26c-6.364 1.765-17.429 2.796-22.888 2.133zm15.89-40.583c6.946-5.298 6.995-5.733 7.38-65.598.299-46.494.132-54.395-1.279-60.74-1.902-8.547-5.238-12.63-11.754-14.385-8.438-2.272-16.167 2.557-18.844 11.773-2.061 7.1-2.04 112.569.025 119.682 1.545 5.325 6.568 11.16 10.29 11.955 4.837 1.032 10.782-.094 14.182-2.687zm102.11 40.626c-10.053-1.338-15.92-5.217-19.947-13.188-5.056-10.007-5.053-9.948-5.053-109.59v-93h40.555l.428 85.714c.466 93.12.327 90.947 5.9 92.346 5.12 1.285 10.778-1.458 17.84-8.648l6.765-6.887.256-81.262.256-81.263 20.25-.27 20.25-.271v212.882l-2.75.565c-3.318.681-34.026.637-36.5-.053-1.512-.421-1.75-1.8-1.75-10.139v-9.651l-5.75 5.598c-13.231 12.882-27.51 18.88-40.75 17.117zm-263.124-3.478c-.85-1.376-.723-83.647.148-95.3 1.117-14.942.324-26.69-10.402-56.733-3.482-9.753-10.194-29.512-14.39-42.858-30.313-96.42-28.274-89.9-25.378-89.925 19.967-.17 42.912-.051 43.18.217.192.192 6.684 23.738 14.426 52.324s14.204 52.382 14.36 52.88c.156.497 4.7-16.153 10.1-37 11.317-43.703 17.667-67.832 17.91-68.054.506-.463 6.136-.57 24.53-.466l20.359.115-.448 3.25c-.367 2.657-14.259 49.315-28.807 96.75-1.602 5.225-5.653 18.725-9.003 30-3.349 11.275-7.41 24.668-9.025 29.762l-2.936 9.262v57.92c0 54.314-.109 57.951-1.75 58.4-3.65.999-42.223.509-42.874-.544z" style="fill:#fff;fill-opacity:1;stroke:none" transform="translate(249.856 -264.397)"/><path d="M-51.04 621.446c-18.134-2.202-34.79-12.871-42.815-27.425-8.182-14.837-8.928-22.608-8.447-87.935.373-50.6.504-53.773 2.51-61.019 4.78-17.272 14.037-29.053 28.408-36.154 19.723-9.746 40.98-8.474 59.59 3.565 11.847 7.664 19.047 18.747 22.889 35.233 1.702 7.302 1.864 12.886 1.864 64 0 62.135-.302 65.726-6.663 79.19-6.13 12.972-19.987 24.402-34.449 28.412-6.364 1.765-17.429 2.796-22.888 2.133zm15.89-40.584c6.945-5.297 6.994-5.733 7.379-65.598.299-46.494.133-54.395-1.279-60.738-1.902-8.548-5.238-12.631-11.754-14.386-8.438-2.272-16.167 2.557-18.843 11.773-2.062 7.1-2.04 112.569.024 119.682 1.545 5.325 6.568 11.16 10.29 11.955 4.838 1.032 10.783-.095 14.182-2.688zM66.96 621.49c-10.054-1.339-15.921-5.218-19.948-13.188-5.055-10.007-5.053-9.948-5.053-109.59v-93h40.555l.429 85.714c.465 93.12.326 90.947 5.9 92.346 5.118 1.285 10.777-1.459 17.839-8.648l6.766-6.887.255-81.263.256-81.262 20.25-.27 20.25-.272v212.882l-2.75.566c-3.317.681-34.026.637-36.5-.053-1.512-.422-1.75-1.8-1.75-10.14v-9.65l-5.75 5.598c-13.23 12.882-27.51 18.88-40.75 17.117zm-263.124-3.478c-.851-1.377-.723-83.647.147-95.3 1.117-14.942-1.393-26.69-12.12-56.733-3.481-9.753-9.764-28.653-13.96-42-30.313-96.42-28.703-90.758-25.807-90.783 19.967-.17 44.63-.052 44.897.216.192.193 6.684 23.739 14.426 52.325 7.743 28.586 14.204 52.382 14.36 52.88.156.497 4.7-16.153 10.1-37 11.317-43.703 17.667-67.832 17.91-68.054.507-.463 6.136-.57 24.53-.466l20.36.115-.45 3.25c-.366 2.657-14.257 49.314-28.805 96.75-1.603 5.225-5.654 18.725-9.003 30-3.35 11.275-7.411 24.668-9.026 29.762l-2.936 9.262v57.92c0 54.314-.109 57.95-1.75 58.4-3.65.998-42.223.509-42.873-.544z" style="stroke:none;stroke-width:1;stroke-miterlimit:4;stroke-opacity:1;stroke-dasharray:none;fill:url(#d);fill-opacity:1" transform="translate(249.856 -264.397)"/><path d="M451.832 704.274c-23.375-.415-51.05-1.062-61.5-1.438-70.166-2.524-118.34-5.222-127.965-7.167-13.72-2.772-29.051-12.056-37.95-22.98-14.26-17.507-21.856-38.749-25.545-71.445-8.576-76.016-8.386-164.644.511-238 3.897-32.127 13.59-55.353 29.863-71.547 9.287-9.242 18.209-14.416 30.11-17.46 25.747-6.585 227.35-11.83 349.976-9.104 70.83 1.575 147.369 4.838 167.712 7.151 26.308 2.992 44.78 16.617 57.564 42.46 9.652 19.512 12.757 34.699 16.661 81.5 3.093 37.078 3.828 60.161 3.277 102.941-.66 51.2-3.915 96.297-8.78 121.62-5.142 26.763-17.314 49.585-33.03 61.933-12.145 9.542-25.076 13.798-45.404 14.946-6.05.342-13.7.83-17 1.085-11.738.907-74.547 3.455-109 4.42-51.208 1.437-140.784 1.949-189.5 1.085z" style="fill:url(#e);stroke:none;fill-opacity:1" transform="translate(249.856 -264.397)"/><path style="fill:url(#f);fill-opacity:1;stroke:none" d="M446.426 704.286c-22.888-.403-49.985-1.031-60.218-1.397-68.703-2.451-115.872-5.072-125.296-6.96-13.434-2.693-28.446-11.71-37.158-22.32-13.965-17.004-21.401-37.635-25.013-69.392-8.398-73.83-8.211-159.91.5-231.158 3.815-31.204 13.307-53.762 29.24-69.49 9.094-8.977 17.83-14.002 29.482-16.958 25.21-6.396 222.61-11.49 342.679-8.842 69.353 1.529 144.296 4.699 164.214 6.945 25.76 2.906 43.847 16.14 56.364 41.239 9.451 18.951 12.491 33.702 16.314 79.157 3.029 36.013 3.748 58.433 3.209 99.983-.646 49.729-3.834 93.528-8.598 118.124-5.034 25.993-16.952 48.16-32.341 60.152-11.892 9.268-24.553 13.402-44.457 14.517-5.924.331-13.414.806-16.645 1.053-11.494.882-72.993 3.356-106.728 4.294-50.14 1.395-137.848 1.892-185.548 1.053z" transform="translate(249.856 -264.397)"/><path d="M253.701 329.534v37.969l22.25.281 22.25.281.25 120.5c.136 66.275.455 121.051.719 121.75.37.982 5.005 1.21 20.281 1l19.75-.25.5-121.5.5-121.5 22.781-.281 22.782-.281-.282-18.719-.28-18.719-65.75-.281-65.75-.25zm286 .031v282h36v-9.5c0-6.296.39-9.5 1.125-9.5.611 0 4.655 3.32 9 7.406 14 13.171 26.13 16.808 41.25 12.344 5.794-1.71 12.862-8.625 16.032-15.687 6.086-13.562 6.093-13.88 6.093-90.063 0-62.542-.15-70.25-1.718-77-5.028-21.638-15.998-31.11-34.407-29.719-10.323.781-18.456 4.89-28.187 14.282-4.228 4.08-8.025 7.437-8.438 7.437-.412 0-.75-20.7-.75-46v-46h-36zm198.125 70.063c-5.86.12-11.724 1.17-17.343 3.218-19.391 7.07-30.85 19.813-35.47 39.5-1.632 6.959-1.812 13.216-1.812 64.22 0 62.553.23 65.106 6.625 77.905 11.395 22.804 39.941 34.696 65.875 27.438 19.262-5.39 32.588-18.533 37.594-37.094.855-3.172 1.804-12.162 2.125-20l.594-14.25H758.95l-.468 12.75c-.521 14.52-2.008 19.495-7.282 24.125-5.627 4.941-15.962 5.283-22.687.75-7.996-5.388-9.995-14.499-9.594-44.125l.281-21 38.375-.281 38.375-.25-.531-31.25c-.588-34.845-1.315-40.134-7.187-52.5-8.705-18.33-29.48-29.585-50.407-29.156zm-343.125 2.937v90.531c0 98.587.105 100.712 5.625 110.22 6.03 10.384 20.19 13.638 35.094 8.062 7.198-2.693 15.63-8.518 22.75-15.75 3.283-3.335 6.545-6.063 7.25-6.063.964 0 1.281 2.724 1.281 11v11h36v-209h-36v161.219l-7.75 7.719c-6.152 6.116-8.74 7.958-12.531 9-6.445 1.77-10.498.555-13.156-3.969-2.006-3.414-2.046-4.95-2.313-88.719l-.281-85.25h-35.969zm344.594 29.625c8.034 0 13.1 3.093 16.531 10.063 2.175 4.418 2.415 6.28 2.719 22.562l.313 17.75h-19.594c-16.897 0-19.7-.241-20.22-1.594-.927-2.417.367-30.452 1.595-34.53 2.885-9.586 9.004-14.25 18.656-14.25zm-144.125 2.344c5.65-.203 10.511 2.39 13.125 7.656 1.82 3.666 1.942 6.958 2.156 62.875.205 53.647.07 59.444-1.5 63.969-1.205 3.475-2.752 5.663-5.125 7.25-5.996 4.011-14.702 2.73-22.625-3.313l-3.5-2.656V442.784l3.5-2.656c4.697-3.583 9.575-5.436 13.969-5.594z" style="opacity:.753;fill:#a60707;fill-opacity:1;stroke:none" transform="translate(249.856 -264.397)"/><path d="M253.701 336.177v37.968l22.25.282 22.25.281.25 120.5c.136 66.275.455 121.05.719 121.75.37.982 5.005 1.21 20.281 1l19.75-.25.5-121.5.5-121.5 22.781-.281 22.782-.282-.282-18.718-.28-18.719-65.75-.281-65.75-.25zm286 .03v282h36v-9.5c0-6.296.39-9.5 1.125-9.5.611 0 4.655 3.32 9 7.407 14 13.17 26.13 16.807 41.25 12.344 5.794-1.71 12.862-8.625 16.032-15.688 6.086-13.561 6.093-13.879 6.093-90.062 0-62.542-.15-70.25-1.718-77-5.028-21.638-15.998-31.111-34.407-29.719-10.323.78-18.456 4.89-28.187 14.281-4.228 4.08-8.025 7.438-8.438 7.438-.412 0-.75-20.7-.75-46v-46h-36zm198.125 70.063c-5.86.12-11.724 1.17-17.343 3.22-19.391 7.07-30.85 19.812-35.47 39.5-1.632 6.957-1.812 13.215-1.812 64.218 0 62.553.23 65.107 6.625 77.906 11.395 22.804 39.941 34.695 65.875 27.438 19.262-5.39 32.588-18.533 37.594-37.094.855-3.172 1.804-12.163 2.125-20l.594-14.25H758.95l-.468 12.75c-.521 14.52-2.008 19.495-7.282 24.125-5.627 4.941-15.962 5.282-22.687.75-7.996-5.388-9.995-14.499-9.594-44.125l.281-21 38.375-.281 38.375-.25-.531-31.25c-.588-34.845-1.315-40.134-7.187-52.5-8.705-18.33-29.48-29.585-50.407-29.157zm-343.125 2.938v90.531c0 98.587.105 100.712 5.625 110.219 6.03 10.385 20.19 13.639 35.094 8.062 7.198-2.693 15.63-8.518 22.75-15.75 3.283-3.334 6.545-6.062 7.25-6.062.964 0 1.281 2.723 1.281 11v11h36v-209h-36v161.219l-7.75 7.718c-6.152 6.116-8.74 7.959-12.531 9-6.445 1.771-10.498.556-13.156-3.968-2.006-3.414-2.046-4.95-2.313-88.72l-.281-85.25h-35.969zm344.594 29.625c8.034 0 13.1 3.093 16.531 10.062 2.175 4.418 2.415 6.28 2.719 22.563l.313 17.75h-19.594c-16.897 0-19.7-.242-20.22-1.594-.927-2.417.367-30.452 1.595-34.531 2.885-9.585 9.004-14.25 18.656-14.25zm-144.125 2.344c5.65-.203 10.511 2.39 13.125 7.656 1.82 3.666 1.942 6.958 2.156 62.875.205 53.647.07 59.443-1.5 63.969-1.205 3.475-2.752 5.663-5.125 7.25-5.996 4.01-14.702 2.73-22.625-3.313l-3.5-2.656V449.427l3.5-2.657c4.697-3.582 9.575-5.436 13.969-5.593z" style="fill:#fff;fill-opacity:1;stroke:#fff;stroke-opacity:1" transform="translate(249.856 -264.397)"/></svg>